<svg width="32" height="31" viewBox="0 0 32 31" fill="none" xmlns="http://www.w3.org/2000/svg">
<g id="Frame 2117129277">
<path d="M0.833496 15.4284C0.833496 7.05207 7.62385 0.261719 16.0002 0.261719C24.3765 0.261719 31.1668 7.05207 31.1668 15.4284C31.1668 23.8047 24.3765 30.5951 16.0002 30.5951C7.62385 30.5951 0.833496 23.8047 0.833496 15.4284Z" fill="#EEEEEE"/>
<path id="&#229;&#189;&#162;&#231;&#138;&#182;&#231;&#187;&#147;&#229;&#144;&#136;" fill-rule="evenodd" clip-rule="evenodd" d="M9.65088 9.07904C9.9633 8.76662 10.4698 8.76662 10.7823 9.07904L16.002 14.2988L21.2212 9.07953C21.5336 8.76711 22.0402 8.76711 22.3526 9.07953C22.665 9.39195 22.665 9.89848 22.3526 10.2109L17.1333 15.4301L22.3531 20.6499C22.6655 20.9623 22.6655 21.4688 22.3531 21.7812C22.0407 22.0937 21.5341 22.0937 21.2217 21.7812L16.002 16.5615L10.7817 21.7817C10.4693 22.0942 9.96278 22.0942 9.65036 21.7817C9.33795 21.4693 9.33795 20.9628 9.65036 20.6504L14.8706 15.4301L9.65088 10.2104C9.33846 9.89799 9.33846 9.39146 9.65088 9.07904Z" fill="black"/>
</g>
</svg>
