<svg width="12" height="12" viewBox="0 0 12 12" fill="none" xmlns="http://www.w3.org/2000/svg">
<g id="Frame 2117131539">
<rect x="0.3" y="0.3" width="11.4" height="11.4" rx="5.7" fill="#DD0866"/>
<rect x="0.3" y="0.3" width="11.4" height="11.4" rx="5.7" stroke="white" stroke-width="0.6"/>
<path id="Vector" d="M5.07121 6.59681H3.69681C3.51737 6.59681 3.39359 6.4172 3.45744 6.24963L4.82313 2.66493C4.84161 2.61643 4.87438 2.57469 4.91712 2.54524C4.95985 2.51578 5.01052 2.50001 5.06242 2.5H7.36696C7.54879 2.5 7.67275 2.68422 7.60411 2.85265L6.80892 4.80446H8.30591C8.52607 4.80446 8.64353 5.06398 8.49832 5.22942L4.82808 9.41151C4.64967 9.61485 4.31888 9.43866 4.38811 9.17718L5.07121 6.59681Z" fill="white"/>
</g>
</svg>
