<svg width="80" height="110" viewBox="0 0 80 110" fill="none" xmlns="http://www.w3.org/2000/svg">
<g id="Frame" clip-path="url(#clip0_13621_9791)">
<path id="Vector" d="M8.91501 70.1875H27.5791L18.9579 57.0591H0.143066L8.91501 70.1875Z" fill="#C1CBD6"/>
<g id="Group">
<path id="Vector_2" d="M65.4778 4.25704C65.5826 4.33565 65.6285 4.46667 65.5957 4.59769L64.7965 8.01738C64.7703 8.12219 64.8292 8.22701 64.9275 8.26632C65.0323 8.31218 65.1568 8.25977 65.2026 8.15495L66.0936 6.16996C66.1591 6.03239 66.3163 5.96688 66.4605 6.02584C66.5915 6.0848 66.657 6.22892 66.6177 6.3665L65.8119 9.00004L65.4843 10.6968C65.2747 11.7777 64.8882 12.8193 64.3445 13.7824L63.8793 16.6452L60.3679 15.6625L60.9051 12.8914L59.1298 10.5658L58.2454 9.47172C58.134 9.33415 58.1405 9.14417 58.2519 9.00659C58.3567 8.88212 58.5271 8.84282 58.6777 8.90833L58.9594 9.0328C59.2608 9.17037 59.5425 9.36036 59.7783 9.58964L59.9487 9.75342C60.2238 10.022 60.6431 10.081 60.9772 9.9041C61.2327 9.76652 61.4095 9.51103 61.4358 9.21623L61.9402 4.26359C61.9533 4.12601 62.045 4.00809 62.176 3.96879C62.4119 3.89017 62.6543 4.06705 62.6412 4.316L62.5101 7.585L62.7656 7.51949L63.709 3.51676C63.7614 3.29402 64.0169 3.20231 64.2003 3.33333C64.2986 3.40539 64.3445 3.52331 64.3248 3.64778L63.6238 7.61121L63.9252 7.62431L64.9537 4.42081C65.0258 4.19808 65.2944 4.11291 65.4778 4.25704Z" fill="#E2AB93"/>
<path id="Vector_3" d="M17.412 1.07346C17.3072 1.15207 17.2548 1.2831 17.281 1.40757L17.9688 4.85345C17.9885 4.95827 17.9295 5.06309 17.8313 5.09584C17.7199 5.13515 17.602 5.08274 17.5561 4.97792L16.7372 2.96018C16.6783 2.81606 16.521 2.75055 16.3769 2.80295C16.2459 2.85536 16.1738 2.99949 16.2066 3.13706L16.9272 5.79681L17.2024 7.50665C17.3792 8.59414 17.733 9.64887 18.244 10.625L18.6174 13.5009L22.155 12.6296L21.703 9.83885L23.5504 7.57217L24.4675 6.51089C24.5789 6.37986 24.5855 6.18333 24.4741 6.04576C24.3758 5.92129 24.199 5.87543 24.0548 5.93439L23.7666 6.05231C23.4587 6.17678 23.177 6.36021 22.928 6.58295L22.7512 6.74673C22.4695 7.00877 22.0502 7.05463 21.7161 6.86465C21.4606 6.72052 21.2968 6.45848 21.2772 6.16368L20.9299 1.19793C20.9234 1.06036 20.8317 0.942438 20.7007 0.890029C20.4714 0.804864 20.2224 0.975193 20.2224 1.22414L20.2552 4.49969L19.9997 4.42763L19.1808 0.392144C19.1349 0.169406 18.8794 0.0645884 18.696 0.195611C18.5977 0.261122 18.5453 0.385593 18.5584 0.503513L19.148 4.48004L18.8467 4.48659L17.9164 1.25034C17.8706 1.02105 17.602 0.929336 17.412 1.07346Z" fill="#E2AB93"/>
<path id="Vector_4" d="M34.2547 31.4375L31.8242 40.8252H47.1407L44.5465 31.8437L34.2547 31.4375Z" fill="black"/>
<path id="Vector_5" d="M40.0725 26.9829C43.0467 26.9829 45.4575 29.3937 45.4575 32.3679C45.4575 32.5579 45.4444 32.7479 45.4248 32.9313L46.7219 34.7132C46.8333 34.8705 46.8267 35.0866 46.6957 35.2308L45.8703 36.1414L45.8309 38.1788C45.8178 38.9321 45.1693 39.5086 44.4225 39.4431L40.6425 39.109C40.5049 39.1287 40.7276 39.0959 40.5311 39.0959C37.5569 39.0959 34.6875 35.3356 34.6875 32.3614C34.6875 29.3937 37.0983 26.9829 40.0725 26.9829Z" fill="#E2AB93"/>
<path id="Vector_6" d="M46.676 42.1685L48.6806 49.0078C49.0279 50.508 49.0606 52.0672 48.7658 53.5805L46.8005 63.8133H31.4185L29.6366 53.3709C29.3811 51.8772 29.44 50.3442 29.8003 48.8702L31.4578 42.1685H46.676Z" fill="#FFED35"/>
<path id="Vector_7" d="M39.4827 45.9614C41.2842 45.9614 42.7451 44.5005 42.7451 42.6989V37.3074C42.7451 35.5058 41.2842 34.0449 39.4827 34.0449C37.6811 34.0449 36.2202 35.5058 36.2202 37.3074V42.6989C36.2202 44.5005 37.6811 45.9614 39.4827 45.9614Z" fill="#E2AB93"/>
<path id="Vector_8" d="M55.7817 31.2803L60.5772 13.9854L64.4816 14.8829L61.4353 32.394L55.7817 31.2803Z" fill="#FFED35"/>
<path id="Vector_9" d="M60.8366 33.6395C61.836 32.4614 61.6688 30.6771 60.463 29.6543C59.2573 28.6315 57.4696 28.7575 56.4702 29.9356C55.4708 31.1138 55.6381 32.898 56.8438 33.9208C58.0496 34.9436 59.8372 34.8177 60.8366 33.6395Z" fill="#FFED35"/>
<path id="Vector_10" d="M61.0949 33.2784L47.141 51.4578L41.5464 45.9483L56.4436 29.9111L61.0949 33.2784Z" fill="#FFED35"/>
<path id="Vector_11" d="M24.9128 29.158L22.122 11.4307L18.1455 11.8696L19.2068 29.7869L24.9128 29.158Z" fill="#FFED35"/>
<path id="Vector_12" d="M23.3315 31.9247C24.735 31.1968 25.2962 29.4949 24.5849 28.1235C23.8736 26.752 22.1592 26.2304 20.7557 26.9583C19.3522 27.6863 18.791 29.3881 19.5022 30.7596C20.2135 32.131 21.9279 32.6526 23.3315 31.9247Z" fill="#FFED35"/>
<path id="Vector_13" d="M19.5215 30.7497L29.6954 52.1325L35.5652 47.062L24.6183 28.103L19.5215 30.7497Z" fill="#FFED35"/>
<path id="Vector_14" d="M35.3031 29.1057C38.5918 24.8737 44.6254 26.066 45.988 31.1759L44.9267 31.6737L43.7606 29.0598L44.0947 32.0668L40.413 33.7898C39.6138 34.0059 38.7687 34.0387 37.9563 33.8684C38.2446 34.5169 38.4608 35.2703 38.4084 35.9713C38.2773 37.6287 37.2357 37.9497 36.2268 37.9497C36.2203 37.9497 31.9948 33.3639 35.3031 29.1057Z" fill="black"/>
<path id="Vector_15" d="M38.7358 35.0345C39.5679 35.0345 40.2425 34.3599 40.2425 33.5278C40.2425 32.6956 39.5679 32.021 38.7358 32.021C37.9036 32.021 37.229 32.6956 37.229 33.5278C37.229 34.3599 37.9036 35.0345 38.7358 35.0345Z" fill="#E2AB93"/>
<g id="Group_2">
<path id="Vector_16" d="M25.0179 73.9414C25.424 70.5479 27.0553 67.423 29.6102 65.1498L31.4118 63.6758L40.7405 63.8068L34.3074 108.833C29.7674 108.833 25.3192 108.826 20.8579 108.708L25.0179 73.9414Z" fill="#24252B"/>
<path id="Vector_17" d="M36.561 63.813H46.807L47.7896 65.5228C50.0432 69.4338 51.2421 73.8624 51.2748 78.3696L51.4976 108.872C47.2983 109.042 42.326 108.819 38.1923 108.839L36.561 63.813Z" fill="#24252B"/>
</g>
<path id="Vector_18" d="M35.739 46.7456L43.0566 46.7456L43.0566 41.223L35.739 41.223L35.739 46.7456Z" fill="#FFED35"/>
</g>
<path id="Vector_19" d="M55.2969 70.1875H8.91504V109.435H55.2969V70.1875Z" fill="#DEE4EB"/>
<path id="Vector_20" d="M71.1634 70.1875H52.3486V109.435H71.1634V70.1875Z" fill="#CED7E0"/>
<path id="Vector_21" d="M71.1634 70.1875H52.3486L60.9306 57.0591H79.7454L71.1634 70.1875Z" fill="#C1CBD6"/>
<path id="Vector_22" d="M32.178 70.1875H27.5791V109.435H32.178V70.1875Z" fill="#CED7E0"/>
<path id="Vector_23" d="M52.3486 92.1091V87.5103L8.91473 87.5103V92.1091L52.3486 92.1091Z" fill="#CED7E0"/>
<g id="Group_3">
<path id="Vector_24" d="M42.8514 2.56446L41.9722 1.32471L38.3545 3.89042L39.2337 5.13016L42.8514 2.56446Z" fill="#CED7E0"/>
<path id="Vector_25" d="M77.9041 7.82032L77.0249 6.58057L73.4072 9.14627L74.2864 10.386L77.9041 7.82032Z" fill="#CED7E0"/>
<path id="Vector_26" d="M7.38119 26.9341L6.50195 25.6943L2.88424 28.26L3.76348 29.4998L7.38119 26.9341Z" fill="#CED7E0"/>
<path id="Vector_27" d="M43.9812 19.7596L44.9644 18.6006L41.5821 15.7315L40.5989 16.8906L43.9812 19.7596Z" fill="#CED7E0"/>
<path id="Vector_28" d="M10.1101 12.162L11.0933 11.0029L7.71105 8.13386L6.72785 9.2929L10.1101 12.162Z" fill="#CED7E0"/>
<path id="Vector_29" d="M72.6159 30.6424L73.5991 29.4834L70.2169 26.6143L69.2337 27.7734L72.6159 30.6424Z" fill="#CED7E0"/>
</g>
</g>
<defs>
<clipPath id="clip0_13621_9791">
<rect width="79.6026" height="109.286" fill="white" transform="translate(0.143066 0.143066)"/>
</clipPath>
</defs>
</svg>
